<svg width="327" height="196" viewBox="0 0 327 196" fill="none" xmlns="http://www.w3.org/2000/svg">
<path fill-rule="evenodd" clip-rule="evenodd" d="M81.5583 68.4652C65.4906 68.4652 52.4652 81.4906 52.4652 97.5583C52.4652 113.626 65.4906 126.652 81.5583 126.652C97.6261 126.652 110.652 113.626 110.652 97.5583C110.652 81.4906 97.6261 68.4652 81.5583 68.4652ZM46 97.5583C46 77.92 61.92 62 81.5583 62C101.197 62 117.117 77.92 117.117 97.5583C117.117 117.197 101.197 133.117 81.5583 133.117C61.92 133.117 46 117.197 46 97.5583Z" fill="#9754CB"/>
<path fill-rule="evenodd" clip-rule="evenodd" d="M99.2974 85.503C100.245 82.518 97.4143 79.7144 94.4385 80.6908L74.1688 87.3418C72.9955 87.7268 72.0788 88.6524 71.7052 89.8294L65.4244 109.614C64.4768 112.599 67.3076 115.402 70.2834 114.426L90.553 107.775C91.7264 107.39 92.643 106.464 93.0167 105.287L99.2974 85.503ZM82.3572 102.176C84.9076 102.176 86.9751 100.109 86.9751 97.5582C86.9751 95.0078 84.9076 92.9403 82.3572 92.9403C79.8068 92.9403 77.7393 95.0078 77.7393 97.5582C77.7393 100.109 79.8068 102.176 82.3572 102.176Z" fill="#9754CB"/>
<path d="M137.093 103.02C137.806 103.303 138.367 103.522 138.777 103.679C139.188 103.835 139.617 103.972 140.066 104.089C140.193 103.767 140.257 103.327 140.257 102.771C140.257 102.019 140.203 100.642 140.096 98.6396C139.939 95.9639 139.861 93.9131 139.861 92.4873C139.861 91.501 139.891 90.6514 139.949 89.9385L137.532 89.792L137.488 94.4062C136.756 94.6504 135.931 94.7725 135.013 94.7725C134.778 94.7725 134.603 94.7676 134.485 94.7578C134.163 94.5039 133.826 94.1035 133.475 93.5566C133.133 93.0098 132.85 92.3945 132.625 91.7109C132.4 91.0273 132.288 90.3682 132.288 89.7334C132.288 88.6396 132.469 87.8047 132.83 87.2285C133.191 86.6523 133.699 86.2568 134.354 86.042C135.008 85.8174 135.882 85.6709 136.976 85.6025C138.675 85.5049 140.672 85.4316 142.967 85.3828C145.271 85.3242 147.474 85.2949 149.573 85.2949C149.856 85.6562 150.066 86.0615 150.203 86.5107C150.35 86.96 150.423 87.4092 150.423 87.8584C150.423 88.6982 150.208 89.4014 149.778 89.9678C149.349 90.5342 148.714 90.8174 147.874 90.8174C147.327 90.8174 146.668 90.7197 145.896 90.5244C145.721 95.1143 145.467 99.3525 145.135 103.239C145.066 103.991 144.954 104.655 144.798 105.231C144.642 105.808 144.402 106.311 144.08 106.74C143.68 107.268 143.128 107.658 142.425 107.912C141.722 108.166 140.945 108.293 140.096 108.293C139.295 108.293 138.504 108.151 137.723 107.868C136.951 107.585 136.37 107.062 135.979 106.301C135.989 105.666 136.067 105.104 136.214 104.616C136.36 104.118 136.653 103.586 137.093 103.02ZM150.203 99.3428C150.203 97.5752 150.486 96.042 151.053 94.7432C151.619 93.4443 152.488 92.4385 153.66 91.7256C154.832 91.0029 156.302 90.6416 158.069 90.6416C160.022 90.6416 161.556 91.0078 162.669 91.7402C163.782 92.4629 164.559 93.4688 164.998 94.7578C165.447 96.0469 165.672 97.624 165.672 99.4893C165.672 101.179 165.374 102.688 164.778 104.016C164.192 105.334 163.304 106.379 162.112 107.15C160.931 107.912 159.48 108.293 157.762 108.293C155.105 108.293 153.182 107.478 151.99 105.847C150.799 104.206 150.203 102.038 150.203 99.3428ZM158.362 104.001C158.86 104.001 159.163 103.962 159.271 103.884C159.495 103.493 159.666 102.941 159.783 102.229C159.9 101.516 159.959 100.744 159.959 99.9141C159.959 99.1523 159.91 98.4395 159.812 97.7754C159.715 97.1016 159.578 96.5742 159.402 96.1934C159.295 96.0664 159.08 95.9736 158.758 95.915C158.436 95.8467 158.084 95.8125 157.703 95.8125C157.205 95.8125 156.863 95.8662 156.678 95.9736C156.189 96.8135 155.945 97.9805 155.945 99.4746C155.945 100.178 155.999 100.896 156.106 101.628C156.214 102.36 156.351 103.024 156.517 103.62C156.634 103.747 156.873 103.845 157.234 103.913C157.596 103.972 157.972 104.001 158.362 104.001ZM167.503 95.373C167.337 94.6602 167.229 94.1377 167.181 93.8057C167.132 93.4736 167.107 92.9707 167.107 92.2969C167.684 91.75 168.304 91.3398 168.968 91.0664C169.632 90.7832 170.379 90.6416 171.209 90.6416C173.729 90.6416 174.988 91.9062 174.988 94.4355C174.988 95.1094 174.925 95.8906 174.798 96.7793C174.681 97.668 174.51 98.7861 174.285 100.134C174.256 100.31 174.178 100.783 174.051 101.555C173.924 102.326 173.836 102.971 173.787 103.488C173.953 103.664 174.158 103.786 174.402 103.854C174.52 103.854 174.788 103.615 175.208 103.137C175.638 102.648 176.097 102.058 176.585 101.364C177.073 100.671 177.474 100.031 177.786 99.4453C177.864 98.0488 177.972 96.7646 178.108 95.5928L176.57 95.2852C176.443 94.7969 176.355 94.3672 176.307 93.9961C176.258 93.625 176.233 93.2295 176.233 92.8096L176.248 92.3994C176.6 91.9502 177.127 91.5449 177.83 91.1836C178.533 90.8223 179.339 90.6416 180.247 90.6416C182.767 90.6416 184.026 91.9062 184.026 94.4355C184.026 95.4609 183.855 96.8135 183.514 98.4932C183.172 100.163 182.771 101.853 182.312 103.562L183.997 102.829C184.28 103.132 184.529 103.503 184.744 103.942C184.969 104.372 185.11 104.87 185.169 105.437C185.032 105.729 184.734 106.105 184.275 106.564C183.816 107.014 183.255 107.414 182.591 107.766C181.927 108.117 181.233 108.293 180.511 108.293C179.7 108.293 179.075 108.054 178.636 107.575C178.206 107.087 177.991 106.467 177.991 105.715C177.991 105.52 178.04 105.119 178.138 104.514C178.245 103.908 178.333 103.488 178.401 103.254L177.991 103.122C177.503 104.831 176.829 106.12 175.97 106.989C175.12 107.858 174.148 108.293 173.055 108.293C171.482 108.293 170.374 107.775 169.729 106.74C169.085 105.695 168.763 104.401 168.763 102.858C168.763 99.958 168.86 97.5361 169.056 95.5928L167.503 95.373ZM187.879 104.074C187.879 103.654 187.889 102.624 187.908 100.983C187.938 97.7607 187.952 95.998 187.952 95.6953L186.604 95.4756C186.419 94.9189 186.287 94.3965 186.209 93.9082C186.131 93.4199 186.092 92.9268 186.092 92.4287C186.092 92.2236 186.097 92.0674 186.106 91.96C186.272 91.8135 186.531 91.6377 186.883 91.4326C187.234 91.2275 187.649 91.0469 188.128 90.8906C188.606 90.7246 189.095 90.6416 189.593 90.6416C190.755 90.6416 191.595 90.9004 192.112 91.418C192.64 91.9355 192.903 92.6924 192.903 93.6885C192.903 94.2939 192.825 95.0703 192.669 96.0176C192.522 96.9551 192.371 97.624 192.215 98.0244L192.742 98.1123L193.621 94.8018C194.012 93.3076 194.5 92.2432 195.086 91.6084C195.672 90.9639 196.331 90.6416 197.063 90.6416C197.542 90.6416 198.016 90.7148 198.484 90.8613C198.963 91.0078 199.329 91.1885 199.583 91.4033C199.856 92.0088 199.993 92.8145 199.993 93.8203C199.993 94.5234 199.925 95.2217 199.788 95.915C199.651 96.5986 199.476 97.1504 199.261 97.5703L196.185 97.1602C195.56 97.8242 194.896 98.7471 194.192 99.9287C193.489 101.101 192.928 102.18 192.508 103.166L192.493 103.928L195.335 103.254C195.813 103.986 196.092 104.855 196.17 105.861C196.17 105.92 195.95 106.159 195.511 106.579C195.071 106.999 194.49 107.39 193.768 107.751C193.055 108.103 192.234 108.278 191.307 108.278C190.35 108.278 189.549 108.024 188.904 107.517C188.27 106.999 187.933 106.13 187.894 104.909C187.884 104.763 187.879 104.484 187.879 104.074ZM200.901 89.7773C200.726 89.2207 200.604 88.8252 200.535 88.5908C200.477 88.3467 200.433 88.0879 200.403 87.8145C200.384 87.5312 200.374 87.1211 200.374 86.584C201.194 86.125 201.961 85.7979 202.674 85.6025C203.396 85.3975 204.212 85.2949 205.12 85.2949C207.825 85.2949 209.178 86.6475 209.178 89.3525C209.178 90.2021 209.09 91.4619 208.914 93.1318C208.748 94.8018 208.528 96.8232 208.255 99.1963C208.089 100.573 207.967 101.643 207.889 102.404C208.074 102.609 208.294 102.741 208.548 102.8C208.685 102.858 209.09 102.634 209.764 102.126C210.447 101.608 211.141 100.993 211.844 100.28C212.557 99.5576 213.064 98.9082 213.367 98.332C213.094 93.0586 212.669 89.1621 212.093 86.6426C212.532 86.2031 213.104 85.8711 213.807 85.6465C214.51 85.4121 215.193 85.2949 215.857 85.2949C216.424 85.2949 216.966 85.3584 217.483 85.4854C218.011 85.6025 218.465 85.8027 218.846 86.0859C219.148 86.75 219.3 87.8389 219.3 89.3525C219.3 90.1924 219.217 91.5693 219.051 93.4834C218.895 95.3877 218.694 97.2773 218.45 99.1523C218.216 101.018 217.986 102.375 217.762 103.225L219.563 102.434C219.866 102.746 220.135 103.142 220.369 103.62C220.604 104.089 220.755 104.626 220.823 105.231C220.667 105.544 220.345 105.944 219.856 106.433C219.368 106.921 218.768 107.355 218.055 107.736C217.352 108.107 216.609 108.293 215.828 108.293C214.959 108.293 214.29 108.034 213.821 107.517C213.362 106.999 213.133 106.335 213.133 105.524C213.133 105.329 213.172 104.904 213.25 104.25C213.338 103.596 213.416 103.19 213.484 103.034L213.045 102.888C212.518 103.933 211.966 104.846 211.39 105.627C210.823 106.408 210.149 107.048 209.368 107.546C208.587 108.044 207.698 108.293 206.702 108.293C205.149 108.293 204.061 107.741 203.436 106.638C202.811 105.524 202.498 104.133 202.498 102.463C202.498 100.441 202.522 98.1318 202.571 95.5342C202.62 92.9365 202.698 91.0957 202.806 90.0117L200.901 89.7773ZM227.386 106.169C227.2 105.446 226.854 104.401 226.346 103.034C225.838 101.657 225.306 100.334 224.749 99.0645C224.192 97.7949 223.753 96.9209 223.431 96.4424L222.083 96.208C221.946 95.8271 221.839 95.4072 221.761 94.9482C221.692 94.4795 221.634 93.9375 221.585 93.3223C221.751 92.8633 222.005 92.4287 222.347 92.0186C222.688 91.6084 223.099 91.2764 223.577 91.0225C224.065 90.7686 224.593 90.6416 225.159 90.6416C226.087 90.6416 226.854 90.9053 227.459 91.4326C228.074 91.9502 228.548 92.6045 228.88 93.3955C229.222 94.1768 229.52 95.0996 229.773 96.1641C230.291 98.2246 230.623 100.778 230.77 103.825L231.092 103.767C231.473 102.917 231.795 101.701 232.059 100.119C232.332 98.5371 232.479 97.0186 232.498 95.5635L230.667 95.2852C230.452 94.4648 230.345 93.5029 230.345 92.3994C230.56 92.1357 230.867 91.8721 231.268 91.6084C231.678 91.335 232.161 91.1055 232.718 90.9199C233.274 90.7344 233.865 90.6416 234.49 90.6416C237.01 90.6416 238.27 91.9062 238.27 94.4355C238.27 96.4277 237.908 98.3613 237.186 100.236C236.473 102.111 235.398 103.806 233.963 105.319C232.527 106.833 230.779 108.024 228.719 108.894L228.836 109.377C229.1 109.406 229.358 109.421 229.612 109.421C230.442 109.421 231.443 109.284 232.615 109.011C233.279 109.753 233.611 110.563 233.611 111.442C233.611 111.706 233.582 111.975 233.523 112.248C232.938 112.814 232.205 113.303 231.326 113.713C230.447 114.123 229.48 114.328 228.426 114.328C226.893 114.328 225.652 113.981 224.705 113.288C223.758 112.595 223.284 111.54 223.284 110.124C223.284 109.489 223.475 108.933 223.855 108.454C224.246 107.985 224.695 107.604 225.203 107.312C225.721 107.009 226.448 106.628 227.386 106.169ZM239.852 99.3428C239.852 97.5752 240.135 96.042 240.701 94.7432C241.268 93.4443 242.137 92.4385 243.309 91.7256C244.48 91.0029 245.95 90.6416 247.718 90.6416C249.671 90.6416 251.204 91.0078 252.317 91.7402C253.431 92.4629 254.207 93.4688 254.646 94.7578C255.096 96.0469 255.32 97.624 255.32 99.4893C255.32 101.179 255.022 102.688 254.427 104.016C253.841 105.334 252.952 106.379 251.761 107.15C250.579 107.912 249.129 108.293 247.41 108.293C244.754 108.293 242.83 107.478 241.639 105.847C240.447 104.206 239.852 102.038 239.852 99.3428ZM248.011 104.001C248.509 104.001 248.812 103.962 248.919 103.884C249.144 103.493 249.314 102.941 249.432 102.229C249.549 101.516 249.607 100.744 249.607 99.9141C249.607 99.1523 249.559 98.4395 249.461 97.7754C249.363 97.1016 249.227 96.5742 249.051 96.1934C248.943 96.0664 248.729 95.9736 248.406 95.915C248.084 95.8467 247.732 95.8125 247.352 95.8125C246.854 95.8125 246.512 95.8662 246.326 95.9736C245.838 96.8135 245.594 97.9805 245.594 99.4746C245.594 100.178 245.647 100.896 245.755 101.628C245.862 102.36 245.999 103.024 246.165 103.62C246.282 103.747 246.521 103.845 246.883 103.913C247.244 103.972 247.62 104.001 248.011 104.001Z" fill="#9754CB"/>
</svg>
